<?xml version="1.0" encoding="UTF-8"?><svg width="126" height="34" viewBox="0 0 126 34" version="1.1" xmlns="http://www.w3.org/2000/svg" xmlns:xlink="http://www.w3.org/1999/xlink"><title>atom / logo / avenga / desktop / negative-color</title><desc>Created with Sketch.</desc><g id="atom-/-logo-/-avenga-/-desktop-/-negative-color" stroke="none" stroke-width="1" fill="none" fill-rule="evenodd"><path d="M41,25.0165746 L45.2020002,25.0165746 L46.2825146,21.6132597 L52.7656006,21.6132597 L53.846115,25.0165746 L58.0481152,25.0165746 L52.285372,8 L46.7627432,8 L41,25.0165746 Z M47.3630289,18.2099448 L49.2839433,12.1325967 L49.7641719,12.1325967 L51.6850863,18.2099448 L47.3630289,18.2099448 Z M61.6500606,25.0165746 L66.4523465,25.0165746 L70.5342896,12.6187845 L66.812518,12.6187845 L64.2913179,20.7624309 L63.8110893,20.7624309 L61.2898891,12.6187845 L57.5681175,12.6187845 L61.6500606,25.0165746 Z M79.8985164,21.2486188 C79.7544478,21.4674033 79.5623564,21.6375691 79.3462535,21.8077348 C78.9620706,22.0751381 78.3857963,22.3425414 77.6174306,22.3425414 C76.0566876,22.3425414 74.9761733,21.2486188 74.8561161,19.7900552 L83.7403452,19.7900552 L83.788368,19.4983425 C83.8123795,19.3038674 83.8604023,19.0364641 83.8604023,18.5745856 C83.8604023,15.0497238 81.219145,12.3756906 77.6174306,12.3756906 C73.8956589,12.3756906 71.2544016,15.0497238 71.2544016,18.8176796 C71.2544016,22.5856354 73.8956589,25.2596685 77.6174306,25.2596685 C79.8985164,25.2596685 81.3392022,24.2629834 82.275648,23.2662983 C82.8038994,22.6828729 83.2120937,22.0022099 83.5002309,21.2486188 L79.8985164,21.2486188 Z M74.8561161,17.6022099 C75.2162876,15.9734807 76.1527333,15.1712707 77.6174306,15.1712707 C79.0821278,15.1712707 80.0185735,15.9734807 80.378745,17.6022099 L74.8561161,17.6022099 Z M86.1412573,25.0165746 L89.7429718,25.0165746 L89.7429718,18.2099448 C89.7429718,16.8486188 90.6794175,15.9005525 92.0240576,15.9005525 C93.3686977,15.9005525 94.3051434,16.8486188 94.3051434,18.2099448 L94.3051434,25.0165746 L97.9068579,25.0165746 L97.9068579,17.480663 C97.9068579,14.441989 95.8658864,12.3756906 92.9845148,12.3756906 C91.8319662,12.3756906 90.9915661,12.6917127 90.4393032,13.0563536 C90.1271546,13.2508287 89.8390175,13.4696133 89.6229146,13.7127072 L89.5028575,13.7127072 L89.2627432,12.6187845 L86.1412573,12.6187845 L86.1412573,25.0165746 Z M100.30777,25.5027624 C100.427827,26.3535912 100.739976,27.1071823 101.196193,27.7635359 C101.964559,28.881768 103.477279,30 106.310628,30 C110.272513,30 112.313485,27.9337017 112.313485,24.5303867 L112.313485,12.6187845 L109.191999,12.6187845 L108.951885,13.8342541 L108.831828,13.8342541 C108.615725,13.5668508 108.37561,13.3237569 108.087473,13.1049724 C107.583233,12.7403315 106.790856,12.3756906 105.710342,12.3756906 C102.444787,12.3756906 100.067656,14.8066298 100.067656,18.3314917 C100.067656,21.8563536 102.444787,24.2872928 105.710342,24.2872928 C106.670799,24.2872928 107.391142,23.9955801 107.87137,23.679558 C108.159508,23.5093923 108.399622,23.2906077 108.591713,23.0718232 L108.71177,23.0718232 L108.71177,24.5303867 C108.71177,25.9889503 107.87137,26.839779 106.310628,26.839779 C105.35017,26.839779 104.797907,26.5480663 104.437736,26.1834254 C104.245645,25.9889503 104.101576,25.7701657 104.029542,25.5027624 L100.30777,25.5027624 Z M106.19057,20.8839779 C104.749885,20.8839779 103.66937,19.7900552 103.66937,18.3314917 C103.66937,16.8729282 104.749885,15.7790055 106.19057,15.7790055 C107.631256,15.7790055 108.71177,16.8729282 108.71177,18.3314917 C108.71177,19.7900552 107.631256,20.8839779 106.19057,20.8839779 L106.19057,20.8839779 Z M122.878514,25.0165746 L126,25.0165746 L126,17.0917127 C126,14.320442 124.055074,12.3756906 120.477371,12.3756906 C117.115771,12.3756906 115.338925,14.1745856 115.074799,16.3867403 L118.556457,16.3867403 C118.628491,16.1922652 118.77256,16.0220994 118.94064,15.8519337 C119.228777,15.5845304 119.684994,15.2928177 120.477371,15.2928177 C121.701954,15.2928177 122.398286,16.0220994 122.398286,17.1160221 L122.398286,17.359116 L119.636971,17.359116 C116.275371,17.359116 114.594571,19.0607735 114.594571,21.3701657 C114.594571,23.558011 116.275371,25.2596685 119.156742,25.2596685 C120.28528,25.2596685 121.149691,24.9679558 121.701954,24.6033149 C122.014103,24.4088398 122.30224,24.1900552 122.518343,23.9226519 L122.6384,23.9226519 L122.878514,25.0165746 Z M122.398286,20.0331492 C122.398286,21.4917127 121.437828,22.4640884 119.877085,22.4640884 C118.796571,22.4640884 118.196285,21.880663 118.196285,21.1270718 C118.196285,20.3734807 118.77256,19.7900552 120.1172,19.7900552 L122.398286,19.7900552 L122.398286,20.0331492 Z" id="word-mark" fill="#FFF"/><g id="atom-/-logo-/-image-mark-/-negative-color"><g id="Group" transform="translate(0.370792, 0.375209)"><path d="M19.5203015,26.4397705 C16.6663548,28.0690348 15.7392219,29.660782 14.2289742,30.8578165 C12.8911258,31.9180693 11.9238184,32.2131268 10.631995,32.126759 C12.4753396,32.840759 14.4762617,33.2339084 16.5688439,33.2339084 C21.5598379,33.2339084 26.0359747,31.0074946 29.0736318,27.484782 C26.5317197,30.2884142 24.0350526,28.4594486 19.5203015,26.4397705" id="Fill-7" fill="#00B5FF"/><path d="M0.745684762,21.4860096 C0.751535411,21.5067222 0.756996017,21.527044 0.76323671,21.5477567 C1.04055749,22.4344923 1.3884761,23.289182 1.80153195,24.1055728 C4.5419761,29.5236877 5.89230597,22.0210211 5.74681983,16.3977337 C1.15757048,17.933205 0.28309342,19.9181015 0.745684762,21.4860096" id="Fill-9" fill="#00960A"/><path d="M5.74689784,16.3979291 C5.757429,10.2646417 3.30093636,5.71567622 6.77310173,3.0359291 C2.66672597,6.07834289 4.47419879e-12,10.9833314 4.47419879e-12,16.5175153 C4.47419879e-12,18.2507337 0.262499134,19.9225958 0.74810303,21.4948027 C0.279661039,19.9253314 1.14906753,17.936136 5.74689784,16.3979291" id="Fill-11" fill="#FFB300"/><path d="M21.5750886,0.521101512 C21.5750886,0.523446339 21.5739184,0.526181971 21.5739184,0.528526799 C23.0334604,1.12528542 23.1344816,3.41110151 22.4671176,5.11227393 C21.921057,6.5043199 21.6199435,7.51884864 21.4611959,8.14100956 C21.4065899,8.38877967 21.3527639,8.63381416 21.3001081,8.87025094 L21.299718,8.87064174 C22.9507713,10.1040211 26.8012786,10.3064578 29.6712171,11.578136 C31.6292345,12.4425958 33.130121,13.806113 33.1663951,16.3365728 C33.1098388,8.91050381 28.25497,2.64121645 21.5750886,0.521101512" id="Fill-14" fill="#FF4FE4"/><path d="M33.1691644,16.3883935 C33.12938,10.0851061 24.0663341,10.9651981 21.3001471,8.87087622 C19.7544055,16.1163935 33.22026,26.1127843 33.1625336,16.3942555" id="Fill-16" fill="#194EEF"/><path d="M21.300069,8.8707199 C13.4949128,3.42368542 14.9213011,-1.68295826 21.5738794,0.528214155 C23.0334214,1.12536358 23.1344426,3.41078887 22.4670786,5.11235209 C21.4958708,7.5873176 21.300069,8.8707199 21.300069,8.8707199" id="Fill-18" fill="#FF3607"/><path d="M5.74689784,16.3979291 C5.757429,10.1219981 3.18431342,5.50464174 7.02389957,2.85146933 C15.5611671,-3.58039274 19.7549126,11.5328027 5.74689784,16.3979291" id="Fill-1" fill="#FF3607"/><path d="M19.5203015,26.4397705 C24.0350526,28.4594486 26.5317197,30.2884142 29.0736318,27.484782 C31.6050128,24.5494486 33.914069,18.3798165 19.5203015,26.4397705" id="Fill-3" fill="#194EEF"/><path d="M10.6325411,32.1266417 C11.9239744,32.2134004 12.8916718,31.9175613 14.2287402,30.8576992 C15.7389878,29.6606647 16.6661207,28.0689176 19.5204575,26.4396532 C19.5227978,26.4408256 19.5255281,26.4419981 19.5282584,26.4431705 L19.5286484,26.4431705 C17.4645394,25.5693314 16.0233294,25.278182 14.5091813,25.0597222 C8.21310255,24.1522739 -0.0425537229,27.6636532 10.6325411,32.1266417" id="Fill-5" fill="#00960A"/></g></g></g></svg>